<mxfile host="app.diagrams.net" modified="2023-03-15T22:57:07.207Z" agent="5.0 (Windows NT 10.0; Win64; x64) AppleWebKit/537.36 (KHTML, like Gecko) Chrome/111.0.0.0 Safari/537.36" etag="RhygIcmehsrL7er3NJV1" version="21.0.4" type="github">
  <diagram name="PÃ¡gina-1" id="y9r4fpH-43b_tr-uIKqR">
    <mxGraphModel dx="1290" dy="669" grid="1" gridSize="10" guides="1" tooltips="1" connect="1" arrows="1" fold="1" page="1" pageScale="1" pageWidth="827" pageHeight="1169" math="0" shadow="0">
      <root>
        <mxCell id="0" />
        <mxCell id="1" parent="0" />
        <mxCell id="A0Vb-kw6tbs9qMnlV1WT-1" value="+ Livros" style="swimlane;fontStyle=1;align=center;verticalAlign=top;childLayout=stackLayout;horizontal=1;startSize=26;horizontalStack=0;resizeParent=1;resizeParentMax=0;resizeLast=0;collapsible=1;marginBottom=0;whiteSpace=wrap;html=1;fontSize=16;" vertex="1" parent="1">
          <mxGeometry x="10" y="30" width="500" height="250" as="geometry" />
        </mxCell>
        <mxCell id="A0Vb-kw6tbs9qMnlV1WT-2" value="- isbn : int&lt;br&gt;- titulo: String&lt;br&gt;- autor: String&lt;br&gt;- editora: String&lt;br&gt;- ano: int" style="text;strokeColor=none;fillColor=none;align=left;verticalAlign=top;spacingLeft=4;spacingRight=4;overflow=hidden;rotatable=0;points=[[0,0.5],[1,0.5]];portConstraint=eastwest;whiteSpace=wrap;html=1;fontSize=16;" vertex="1" parent="A0Vb-kw6tbs9qMnlV1WT-1">
          <mxGeometry y="26" width="500" height="124" as="geometry" />
        </mxCell>
        <mxCell id="A0Vb-kw6tbs9qMnlV1WT-3" value="" style="line;strokeWidth=1;fillColor=none;align=left;verticalAlign=middle;spacingTop=-1;spacingLeft=3;spacingRight=3;rotatable=0;labelPosition=right;points=[];portConstraint=eastwest;strokeColor=inherit;fontSize=16;" vertex="1" parent="A0Vb-kw6tbs9qMnlV1WT-1">
          <mxGeometry y="150" width="500" height="8" as="geometry" />
        </mxCell>
        <mxCell id="A0Vb-kw6tbs9qMnlV1WT-4" value="+ Livros()&lt;br&gt;+ Livros(isbn: int, titulo: String, autor: String, editora: String, ano: int" style="text;strokeColor=none;fillColor=none;align=left;verticalAlign=top;spacingLeft=4;spacingRight=4;overflow=hidden;rotatable=0;points=[[0,0.5],[1,0.5]];portConstraint=eastwest;whiteSpace=wrap;html=1;fontSize=16;" vertex="1" parent="A0Vb-kw6tbs9qMnlV1WT-1">
          <mxGeometry y="158" width="500" height="92" as="geometry" />
        </mxCell>
        <mxCell id="A0Vb-kw6tbs9qMnlV1WT-5" value="FicharioLivros" style="swimlane;fontStyle=1;align=center;verticalAlign=top;childLayout=stackLayout;horizontal=1;startSize=26;horizontalStack=0;resizeParent=1;resizeParentMax=0;resizeLast=0;collapsible=1;marginBottom=0;whiteSpace=wrap;html=1;fontSize=16;" vertex="1" parent="1">
          <mxGeometry x="10" y="390" width="520" height="268" as="geometry" />
        </mxCell>
        <mxCell id="A0Vb-kw6tbs9qMnlV1WT-6" value="&amp;nbsp;- &amp;lt;ArrayList&amp;gt; livros : Livros&lt;br&gt;" style="text;strokeColor=none;fillColor=none;align=left;verticalAlign=top;spacingLeft=4;spacingRight=4;overflow=hidden;rotatable=0;points=[[0,0.5],[1,0.5]];portConstraint=eastwest;whiteSpace=wrap;html=1;fontSize=16;" vertex="1" parent="A0Vb-kw6tbs9qMnlV1WT-5">
          <mxGeometry y="26" width="520" height="44" as="geometry" />
        </mxCell>
        <mxCell id="A0Vb-kw6tbs9qMnlV1WT-7" value="" style="line;strokeWidth=1;fillColor=none;align=left;verticalAlign=middle;spacingTop=-1;spacingLeft=3;spacingRight=3;rotatable=0;labelPosition=right;points=[];portConstraint=eastwest;strokeColor=inherit;fontSize=16;" vertex="1" parent="A0Vb-kw6tbs9qMnlV1WT-5">
          <mxGeometry y="70" width="520" height="8" as="geometry" />
        </mxCell>
        <mxCell id="A0Vb-kw6tbs9qMnlV1WT-8" value="+ FicharioLivros()&lt;br&gt;+ FicharioLivros(&amp;lt;ArrayList&amp;gt; livros: Livros)&lt;br&gt;+ cadastrarLivros() : void&lt;br&gt;+ alterarLivros() : void&lt;br&gt;+ excluirLivros() : void&lt;br&gt;+ listarLivros() : void&lt;br&gt;+ consultarLivros() : void" style="text;strokeColor=none;fillColor=none;align=left;verticalAlign=top;spacingLeft=4;spacingRight=4;overflow=hidden;rotatable=0;points=[[0,0.5],[1,0.5]];portConstraint=eastwest;whiteSpace=wrap;html=1;fontSize=16;" vertex="1" parent="A0Vb-kw6tbs9qMnlV1WT-5">
          <mxGeometry y="78" width="520" height="190" as="geometry" />
        </mxCell>
        <mxCell id="A0Vb-kw6tbs9qMnlV1WT-9" value="" style="endArrow=block;dashed=1;endFill=0;endSize=12;html=1;rounded=0;fontSize=12;curved=1;" edge="1" parent="1" source="A0Vb-kw6tbs9qMnlV1WT-5" target="A0Vb-kw6tbs9qMnlV1WT-4">
          <mxGeometry width="160" relative="1" as="geometry">
            <mxPoint x="530" y="310" as="sourcePoint" />
            <mxPoint x="690" y="310" as="targetPoint" />
          </mxGeometry>
        </mxCell>
      </root>
    </mxGraphModel>
  </diagram>
</mxfile>
